# xmcd
#
# Track frame offsets:
# 182
# 18122
# 32782
# 48370
# 57097
# 69997
# 83840
# 102120
# 112320
# 127852
# 143870
# 165235
# 185050
# 231407
# 277992
#
# Disc length: 4677 seconds
#
#
# Revision: 0
# Processed by: cddbd v1.5.2PL0 Copyright (c) Steve Scherf et al.
# Submitted via: FreeRIP 2.951 
#
DISCID=c512430f
DTITLE=Various Artist - Mare Balticum [CD 2)
DYEAR=1996
DGENRE=
TTITLE0=Jan Pieterszoon Sweelinck
TTITLE1=Johann Stobaeus
TTITLE2=Johann Stobaeus
TTITLE3=Johann Stobaeus
TTITLE4=Johann Stobaeus
TTITLE5=Johann Stobaeus
TTITLE6=Martin Raphun
TTITLE7=Johann Eccard
TTITLE8=Johann Eccard
TTITLE9=Johann Eccard
TTITLE10=Johann Vierdanck
TTITLE11=Philipp Dulichius
TTITLE12=Johann Valentin Meder
TTITLE13=Kaspar Forster
TTITLE14=Kaspar Forster
EXTD=
EXTT0=
EXTT1=
EXTT2=
EXTT3=
EXTT4=
EXTT5=
EXTT6=
EXTT7=
EXTT8=
EXTT9=
EXTT10=
EXTT11=
EXTT12=
EXTT13=
EXTT14=
PLAYORDER=
